<?xml version="1.0" encoding="utf-8"?>
<!-- Generator: Adobe Illustrator 16.0.0, SVG Export Plug-In . SVG Version: 6.00 Build 0)  -->
<!DOCTYPE svg PUBLIC "-//W3C//DTD SVG 1.1//EN" "http://www.w3.org/Graphics/SVG/1.1/DTD/svg11.dtd">
<svg version="1.1"
	 id="Layer_1" xmlns:rdf="http://www.w3.org/1999/02/22-rdf-syntax-ns#" xmlns:cc="http://creativecommons.org/ns#" xmlns:dc="http://purl.org/dc/elements/1.1/"
	 xmlns="http://www.w3.org/2000/svg" xmlns:xlink="http://www.w3.org/1999/xlink" x="0px" y="0px" width="299.99px"
	 height="202.731px" viewBox="0.978 1 299.99 202.731" enable-background="new 0.978 1 299.99 202.731" xml:space="preserve">
<path fill="#FFFFFF" d="M277.982,203.644c-14.029,0-22.352-7.18-22.986-17.521h13.414c0,3.446,1.91,8.036,10.209,8.32
	c5.752,0,8.937-3.446,8.937-6.037c-0.638-4.019-5.752-4.304-10.847-5.182c-5.752-0.835-10.209-1.998-13.414-3.425
	c-4.457-2.306-7.025-7.201-7.025-12.361c0-9.197,7.686-16.378,21.077-16.378c12.776,0,21.075,6.608,21.69,16.664h-12.756
	c0-2.569-0.637-6.895-8.299-6.895c-5.115,0-8.299,0.855-8.936,4.589c0,5.182,10.846,4.896,19.145,6.894
	c7.662,2.021,12.777,6.896,12.777,13.811C300.968,198.77,290.759,203.644,277.982,203.644"/>
<path fill="#FFFFFF" d="M33.538,118.799l44.041-25.577l23.624,40.528H41.837L33.538,118.799z"/>
<rect x="119.65" y="150.964" fill="#FFFFFF" width="13" height="51.154"/>
<path fill="#FFFFFF" d="M13.097,177.298c0,8.035,7.025,14.644,14.666,14.644c8.321,0,14.688-6.607,14.688-14.644
	c0-7.75-6.367-14.646-14.688-14.646C20.122,162.654,13.097,169.548,13.097,177.298 M27.126,203.732
	c-14.029,0-26.148-11.79-26.148-26.434c0-14.646,12.119-26.148,26.148-26.148c5.752,0,10.868,1.449,15.324,4.59v-4.019h12.778
	v50.847H42.45v-3.16C38.63,202.282,32.878,203.732,27.126,203.732"/>
<path fill="#FFFFFF" d="M197.589,133.74L136.313,26.863L180.355,1l76.6,132.739L197.589,133.74L197.589,133.74z"/>
<path fill="#FFFFFF" d="M71.826,177.298c0,8.035,6.389,14.644,14.688,14.644c7.64,0,14.688-6.607,14.688-14.644
	c0-7.75-7.048-14.646-14.688-14.646C78.215,162.654,71.826,169.548,71.826,177.298 M85.877,203.732
	c-14.688,0-26.17-11.79-26.17-26.434c0-14.646,11.482-26.148,26.17-26.148c5.73,0,10.846,1.449,15.325,4.59V134.2h12.755v68.366
	h-12.755v-3.161C96.723,202.282,91.607,203.732,85.877,203.732"/>
<path fill="#FFFFFF" d="M85.248,73.118l44.678-25.271l49.156,85.887h-46.609v12.646h-12.755v-12.646L85.248,73.118z"/>
<path fill="#FFFFFF" d="M292.691,146.781c-3.205,0-6.389-2.877-6.389-6.323c0-3.447,3.184-6.323,6.389-6.323
	c3.82,0,6.389,2.876,6.389,6.323C299.08,143.905,296.512,146.781,292.691,146.781 M292.691,135.013
	c-3.205,0-5.115,2.568-5.115,5.444s1.91,5.467,5.115,5.467c3.184,0,5.094-2.591,5.094-5.467S295.875,135.013,292.691,135.013"/>
<path fill="#FFFFFF" d="M294.009,143.927l-1.273-2.876h-1.273v2.876h-0.965v-6.895h2.875c0.637,0,1.91,0.879,1.91,2.021
	s-0.637,1.712-1.273,1.998l1.273,2.876 M292.735,137.911h-1.272v2.282h1.272c1.272,0,1.272-0.284,1.272-1.142
	C294.009,138.46,294.009,137.911,292.735,137.911"/>
<path fill="#FFFFFF" d="M208.384,177.298c0,8.035,6.39,14.644,14.689,14.644c7.661,0,14.665-6.607,14.665-14.644
	c0-7.75-7.004-14.646-14.665-14.646C214.773,162.654,208.384,169.548,208.384,177.298 M222.414,203.732
	c-14.666,0-26.147-11.79-26.147-26.434c0-14.646,11.481-26.148,26.147-26.148c5.752,0,10.867,1.449,15.324,4.59v-4.019h12.143
	v50.847h-12.143v-3.16C233.281,202.282,228.166,203.732,222.414,203.732"/>
<path fill="#FFFFFF" d="M149.7,177.298c0,8.035,7.025,14.644,14.688,14.644c8.299,0,14.688-6.607,14.688-14.644
	c0-7.75-6.389-14.646-14.688-14.646C156.725,162.654,149.7,169.548,149.7,177.298 M179.076,134.2h12.756v68.366h-12.756v-3.161
	c-3.843,2.877-8.959,4.325-14.688,4.325c-14.688,0-26.807-11.79-26.807-26.434c0-14.646,12.119-26.148,26.807-26.148
	c5.729,0,10.846,1.449,14.688,4.589V134.2z"/>
</svg>
