<?xml version="1.0" encoding="utf-8"?>
<!-- Generator: Adobe Illustrator 16.0.0, SVG Export Plug-In . SVG Version: 6.00 Build 0)  -->
<!DOCTYPE svg PUBLIC "-//W3C//DTD SVG 1.1//EN" "http://www.w3.org/Graphics/SVG/1.1/DTD/svg11.dtd">
<svg version="1.1" id="Layer_1" xmlns="http://www.w3.org/2000/svg" xmlns:xlink="http://www.w3.org/1999/xlink" x="0px" y="0px"
	 width="136.461px" height="162.005px" viewBox="16.771 3.999 136.461 162.005"
	 enable-background="new 16.771 3.999 136.461 162.005" xml:space="preserve">
<path fill="#FFFFFF" d="M110.25,29.909c5.9-7.002,8.859-14.567,8.859-22.669l0,0c0-1.075-0.049-2.158-0.17-3.241
	c-4.109,0.213-8.479,1.458-13.1,3.71c-4.631,2.286-8.447,5.151-11.449,8.597c-6.014,6.806-9.398,15.13-9.398,22.908
	c0,1.075,0.068,2.098,0.188,3.07C94.518,43.043,103.13,38.233,110.25,29.909z"/>
<path fill="#FFFFFF" d="M142.009,115.379c-7.368-6.83-11.118-15.432-11.229-25.769c-0.118-13.271,5.91-23.616,18.101-31.002
	c-6.81-9.68-17.049-15.053-30.68-16.153c-5.029-0.427-11.171,0.657-18.445,3.275c-7.691,2.823-12.23,4.239-13.568,4.239
	c-1.792,0-5.876-1.211-12.238-3.599c-6.381-2.38-11.515-3.591-15.43-3.591c-7.155,0.119-13.799,1.979-19.948,5.629
	c-6.149,3.65-11.062,8.622-14.755,14.925c-4.699,7.847-7.045,17.211-7.045,28.068c0,9.478,1.74,19.269,5.211,29.378
	c3.241,9.36,7.378,17.569,12.41,24.649c4.69,6.631,8.605,11.312,11.735,14.041c4.904,4.559,9.817,6.729,14.746,6.521
	c3.241-0.111,7.48-1.222,12.742-3.351c5.254-2.121,10.166-3.17,14.746-3.17c4.367,0,9.145,1.049,14.342,3.17
	c5.18,2.129,9.629,3.18,13.318,3.18c5.141-0.12,9.939-2.229,14.42-6.351c2.891-2.51,6.641-7.03,11.221-13.561
	c3.359-4.789,6.26-10,8.711-15.66c1.01-2.399,1.959-4.899,2.859-7.51C149.08,121,145.35,118.549,142.009,115.379z"/>
</svg>
