<?xml version="1.0" encoding="utf-8"?>
<!-- Generator: Adobe Illustrator 16.0.0, SVG Export Plug-In . SVG Version: 6.00 Build 0)  -->
<!DOCTYPE svg PUBLIC "-//W3C//DTD SVG 1.1//EN" "http://www.w3.org/Graphics/SVG/1.1/DTD/svg11.dtd">
<svg version="1.1" id="Layer_1" xmlns="http://www.w3.org/2000/svg" xmlns:xlink="http://www.w3.org/1999/xlink" x="0px" y="0px"
	 width="295px" height="108.035px" viewBox="0 0 295 108.035" enable-background="new 0 0 295 108.035" xml:space="preserve">
<path fill="#FFFFFF" d="M228.249,56.93c1.492-0.061,5.186,0.432,13.16,0.728c8.338,0.313,9.995-6.139,9.651-10.146
	c-8.504,1.826-10.519,2.308-17.854,2.308c-7.719,0-17.215,2.15-17.393,8.928c-0.166,6.735,8.643,8.239,13.209,9.535
	c1.275,0.295,1.759,1.325,0.914,1.983c-1.955,1.57-6.375,3.635-6.904,7.316c-0.746,5.215,4.008,9.299,10.018,9.184
	c8.015-0.178,16.863-3.576,25.367-13.779c2.405-2.877,5.105-7.758,6.767-9.899c0.396-0.774,1.553-1.139,2.053-1.08
	c1.515,0.334,3.664,1.484,3.38,3.134c-0.441,2.524-7.316,10.393-2.74,15.135c2.811,2.906,9.891,5.02,15.526,0.924
	c5.283-3.84,3.418-7.348,1.326-7.611c-1.494-0.176-5.668,5.066-9.045,1.326c-2.81-3.104,3.858-9.525,5.187-11.824
	c1.914-3.301-5.55-5.795-8.691-9.889c-2.014-2.701,3.23-11-3.34-13.189c-2.15-0.717-8.799,3.29-6.435,14.751
	c-3.014,11.342-26.004,31.199-29.067,23.195c-0.746-1.955,1.236-5.195,6.492-6.295c8.69-1.816,8.014-7.189,3.868-7.729
	c-6.512-0.846-8.327-0.846-16.098-2.662C224.536,60.945,224.633,56.87,228.249,56.93"/>
<path fill="#FFFFFF" d="M102.482,69.432c-2.092,2.119-4.508,5.047-4.831,7.414c-0.707,5.127,1.935,9.652,8.445,9.535
	c7.003-0.117,9.301-5.186,21.007-12.305c3.271-1.994,7.326-5.354,9.006-5.629c0.639,0,1.581,0.205,1.522,1.443
	c-1.002,4.664-2.082,7.797-0.884,11.784c0.864,2.8,4.576,4.566,7.257,2.533c4.459-3.377,4.527-5.304,10.303-12.914
	c0.973-1.258,4.479-7.041,6.107-6.274c1.346,0.647,0.973,2.516,0.729,3.985c-1.219,7.131-4.312,18.386,9.771,16.646
	c3.349-0.411,6.039-2.67,3.496-5.065c-1.531-1.442-3.25-0.401-5.188-0.846c-4.527-1.041,6.67-21.646,1.326-25.465
	c-7.504-5.372-14.445,4.145-19.672,11.107c-2.062,2.738-3.574,1.541-4.919-2.328c-1.483-4.291-10.41-1.148-15.527,1.492
	c-8.161,4.213-23.255,18.314-24.66,11.285c-0.245-1.219,1.729-3.93,5.392-5.266c4.312-1.562,9.173-2.957,9.173-5.549
	c0-2.004-1.208-3.408-2.504-3.34c-6.001,0.334-12.983,1.926-20.987-0.283c-1.816-0.011-2.593-4.599,2.809-3.986
	c1.424,0.156,4.606,0.373,16.705,0.607c8.515,0.176,8.701-6.207,7.572-9.596c-7.091,2.111-10.695,1.876-18.198,1.876
	c-7.856,0-18.463,1.08-18.011,8.663c0.383,6.383,9.339,8.131,13.975,8.65C103.023,67.497,103.445,68.764,102.482,69.432"/>
<path fill="#FFFFFF" d="M76.654,53.069c0.717-2.651,2.288-3.251,4.341-3.742c3.063-1.002,7.375-2.337,9.997-2.818
	c6.669-1.64,8.574-1.257,9.429-5.863c0.608-3.211-0.776-4.753-0.776-4.753s-14.524,4.547-17.441,5.353
	c-2.534,1.09-2.053-1.571-2.053-1.571s-0.363,1.688,1.208-5.186C86.111,13.55,83.322,7.972,79.551,4.79
	c-9.574-7.905-44.527,8.515-69.521,28.245c-8.328,7.247-13.16,8.937-7.729,14.73c4.832,4.822,7.965,1.198,7.965,1.198
	c4.586-3.614,14.485-13.749,20.997-18.581c9.28-6.874,22.097-16.783,33.439-19.436c9.006-2.288,11.706,0.364,10.499,9.546
	c-0.697,7.857-6.757,25.584-6.757,25.584s-9.291,4.144-12.07,5.185c-2.17,0.806-4.458,0.246-4.714,5.187
	c-0.107,5.312,3.094,3.318,5.264,2.494c1.65-0.629,5.588-2.483,7.052-3.094c1.09-0.846,2.298-0.117,1.689,1.443
	c-1.081,3.506-3.045,9.172-6.757,17.383c-4.704,11.227-13.16,26.557-14.25,30.414c0.138,2.535,2.906,2.896,6.561,2.947
	c3.358-0.256,4.92-2.584,4.92-2.584s4.37-9.389,11.098-25.945C72.117,67.486,75.299,57.559,76.654,53.069"/>
<path fill="#FFFFFF" d="M196.792,57.469c-5.232-1.514-9.812,4.686-11.154,10.203c-1.219,5.039-0.57,11.807,3.977,12.67
	c3.664,0.707,7.896-2.484,8.986-8.406c0.295-1.582,0.963-6.629,1.168-7.936c1.248-8.016,2.182-11.53,2.182-11.53
	c4.369-16.754,14.85-49.329,17.695-51.234c2.967-1.965,11.117-2.309,8.557,4.497c-3.959,10.567-8.574,19.937-12.748,32.979
	c-4.899,15.281-14.356,39.833-5.912,40.914c3.957,0.511,5.549-3.144,7.926-1.287c3.623,2.838-0.344,7.976-7.325,8.652
	c-9.597,0.344-9.397-5.283-13.662-2.857c-13.67,7.759-22.086-3.094-19.403-16.704c2.307-11.646,11.282-19.888,21.311-14.84
	c0,0,2.562,1.276,2.348,3.447C200.562,57.713,199.307,58.059,196.792,57.469"/>
<path fill="#FFFFFF" d="M291.141,45.143c0-0.972-0.4-1.63-1.207-1.954c-0.463-0.186-1.16-0.285-2.133-0.285v-0.001h-2.721v7.729
	h1.336v-3.035h1.102c0.734,0,1.246,0.079,1.541,0.246c0.502,0.285,0.746,0.884,0.746,1.768v0.618l0.029,0.246
	c0,0.029,0.01,0.059,0.02,0.088c0,0.019,0.01,0.049,0.01,0.069h1.277l-0.049-0.089c-0.041-0.068-0.059-0.196-0.068-0.402
	c-0.009-0.206-0.021-0.402-0.021-0.569v-0.58c0-0.373-0.137-0.775-0.422-1.188c-0.285-0.412-0.728-0.667-1.326-0.756
	c0.481-0.078,0.854-0.206,1.131-0.383C290.895,46.341,291.141,45.84,291.141,45.143z M288.991,46.46
	c-0.296,0.127-0.738,0.177-1.316,0.177h-1.258v-2.77h1.188c0.767,0,1.324,0.088,1.679,0.284c0.344,0.188,0.521,0.561,0.521,1.13
	C289.805,45.86,289.54,46.264,288.991,46.46z"/>
<path fill="#FFFFFF" d="M292.938,41.815c-1.385-1.366-3.055-2.063-5.008-2.063c-1.945,0-3.604,0.698-4.979,2.063
	c-1.385,1.385-2.072,3.045-2.072,4.989c0,1.964,0.688,3.634,2.054,5.009c1.362,1.385,3.032,2.082,4.998,2.082
	c1.954,0,3.622-0.697,5.008-2.082c1.386-1.385,2.062-3.055,2.063-5.009C295,44.86,294.323,43.19,292.938,41.815z M292.258,51.145
	c-1.187,1.188-2.621,1.787-4.32,1.787c-1.697,0-3.15-0.599-4.33-1.787c-1.178-1.188-1.777-2.641-1.777-4.331
	s0.601-3.114,1.789-4.302c1.188-1.199,2.631-1.787,4.318-1.787c1.689,0,3.134,0.589,4.32,1.787c1.199,1.189,1.789,2.613,1.789,4.302
	S293.458,49.957,292.258,51.145z"/>
</svg>
