<?xml version="1.0" encoding="utf-8"?>
<!-- Generator: Adobe Illustrator 16.0.0, SVG Export Plug-In . SVG Version: 6.00 Build 0)  -->
<!DOCTYPE svg PUBLIC "-//W3C//DTD SVG 1.1//EN" "http://www.w3.org/Graphics/SVG/1.1/DTD/svg11.dtd">
<svg version="1.1"
	 id="svg2347" sodipodi:docbase="C:\Users\Chris\Desktop\SVGs" inkscape:version="0.45.1" sodipodi:docname="Marshall logo.svg" sodipodi:version="0.32" inkscape:output_extension="org.inkscape.output.svg.inkscape" xmlns:svg="http://www.w3.org/2000/svg" xmlns:sodipodi="http://sodipodi.sourceforge.net/DTD/sodipodi-0.dtd" xmlns:inkscape="http://www.inkscape.org/namespaces/inkscape" xmlns:rdf="http://www.w3.org/1999/02/22-rdf-syntax-ns#" xmlns:cc="http://web.resource.org/cc/" xmlns:dc="http://purl.org/dc/elements/1.1/"
	 xmlns="http://www.w3.org/2000/svg" xmlns:xlink="http://www.w3.org/1999/xlink" x="0px" y="0px" width="424.637px"
	 height="108.855px" viewBox="0 0 424.637 108.855" enable-background="new 0 0 424.637 108.855" xml:space="preserve">
<path fill="#FFFFFF" d="M388.709,79.856c10.25-7.363,24.01-21.168,28.168-28.259c4.422-7.54,8.383-18.567,7.678-21.379
	c-0.674-2.683-3.522-3.747-7.619-2.849c-4.196,0.922-18.424,12.903-25.092,21.132c-6.367,7.857-10.188,13.794-17.883,27.771
	c-5.848,10.621-15.008,21.056-19.467,22.176c-4.275,1.072-6.838-2.074-6.096-7.488c0.762-5.552,1.155-6.001,11.528-13.121
	c9.439-6.479,19.607-15.992,24.15-22.596C388.524,48.781,395,34.818,395,31.695c0-5.886-7.152-6.435-15.014-1.152
	c-13.5,9.07-28.279,27.701-38.015,47.928c-3.914,8.129-5.86,10.944-9.932,14.353c-5.299,4.437-8.041,4.754-8.041,0.932
	c0-1.19,3.15-8.246,7-15.676c3.85-7.431,7-14.131,7-14.891c0-3.356-9.188-3.89-10.449-0.604c-0.516,1.346-0.863,1.301-2.676-0.34
	c-3.064-2.772-11.062-2.523-17.375,0.54c-6.661,3.233-17.485,14.302-20.988,21.46c-2.665,5.447-9.723,12.613-12.422,12.613
	c-0.719,0-0.153-1.713,1.401-4.25c4.471-7.294,9.188-17.111,9.826-20.45c0.707-3.695-0.864-9.233-3.137-11.05
	c-2.412-1.928-6.089-1.494-10.814,1.275l-4.311,2.525l4.578-10.775c10.67-25.11,10.693-25.177,9.365-26.774
	c-1.965-2.368-7.688-1.913-9.414,0.749c-1.225,1.887-10.109,21.04-21.32,45.962c-2.05,4.557-3.732,6.527-8.326,9.75
	c-3.166,2.221-5.979,4.038-6.248,4.038c-0.269,0-0.686-1.912-0.924-4.25c-0.24-2.337-1.033-6.312-1.764-8.828l-1.327-4.579
	l4.161-5.512c2.289-3.032,4.162-6.009,4.162-6.615c0-1.618-4.102-4.216-6.658-4.216c-1.66,0-5.997,4.626-17.337,18.494
	c-15.571,19.043-18.883,22.304-25.426,25.037c-10.039,4.193-7.901-4.229,5.333-21.024c3.911-4.962,7.087-9.979,7.087-11.193
	c0-3.149-3.501-5.269-7.608-4.602c-3.968,0.644-4.025,0.449-1.392-4.712c1.145-2.244,2-5.895,2-8.537
	c0-3.771-0.537-5.153-2.923-7.539c-1.607-1.608-3.88-2.924-5.049-2.924c-3.413,0-7.871,2.798-9.511,5.968
	c-1.951,3.773-1.948,13.064,0.007,17.743c1.504,3.6,1.477,3.716-2.162,9.218c-10.524,15.913-20.861,26.905-23.15,24.616
	c-0.376-0.376,0.357-2.564,1.628-4.864c1.272-2.299,4.795-9.034,7.829-14.967c4.481-8.762,5.288-11.062,4.301-12.25
	c-1.54-1.854-6.007-1.889-8.502-0.063c-1.641,1.2-2.2,1.2-3.914,0c-1.099-0.771-4.302-1.399-7.117-1.399
	c-10.724,0-23.812,9.875-30.41,22.946c-3.608,7.146-6.699,10.327-12.805,13.177c-5.597,2.609-7.898,1.798-9.263-3.273
	c-3.174-11.787,5.78-35.73,25.559-68.35c5.336-8.8,10.404-17.161,11.263-18.581c2.086-3.449,1.015-5.919-2.566-5.919
	c-2.276,0-4.648,1.854-11.834,9.25c-11.26,11.589-18.429,20.482-30.833,38.25l-9.774,14l0.674-7.5
	c1.17-13.016,5.602-29.197,11.767-42.965c3.269-7.301,3.073-10.675-0.673-11.613c-3.308-0.831-4.09-0.185-9.014,7.447
	c-5.432,8.421-11.686,20.85-22.076,43.872c-10,22.158-17.809,36.513-22.347,41.07c-6.568,6.601-14.722,8.064-20.028,3.6
	C12.489,94.089,12,92.971,12,89.222c0-3.448,0.579-5.036,2.559-7.017c2.239-2.239,3.105-2.478,6.917-1.906
	c3.912,0.588,4.43,0.427,5.063-1.568c1.922-6.056-15.233-8.27-21.231-2.74c-9.959,9.18-5.172,27.124,8.238,30.879
	c6.577,1.841,16.397,0.796,21.698-2.311c8.458-4.957,14.993-13.318,23.868-30.536l4.982-9.667l-0.483,5.829
	c-0.266,3.206-2.195,12.584-4.287,20.839c-3.719,14.682-3.76,15.041-1.873,16.421c1.061,0.776,2.233,1.411,2.604,1.411
	c2.814,0,13.173-13.75,21.847-29l3.129-5.5l-0.742,5.5c-1.901,14.103-0.18,24.438,4.47,26.839
	c6.081,3.139,14.727,1.986,21.847-2.912c3.384-2.329,4.303-2.602,4.76-1.412c0.311,0.812,2.043,2.375,3.849,3.478
	c4.37,2.664,11.634,2.636,16.93-0.065l4.066-2.074l2.208,2.074c2.949,2.771,7.101,2.616,13.349-0.498
	c6.153-3.066,12.212-9.485,22.749-24.102c9.552-13.25,9.069-12.699,10.412-11.869c0.692,0.428-0.79,2.807-3.964,6.362
	C178.909,82.463,173,93.767,173,98.568c0,2.502,0.831,4.272,3.04,6.481c2.826,2.826,3.443,3.01,8.75,2.593
	c4.082-0.32,7.229-1.357,11.039-3.639l5.33-3.188l2.673,2.86c6.621,7.088,16.27,6.399,28.249-2.013
	c4.756-3.34,6.957-4.437,6.414-3.196c-1.793,4.1-1.113,7.718,1.756,9.337c4.899,2.768,7.313,0.331,13.763-13.887
	c4.883-10.769,6.363-13.076,11.062-17.235C270.137,72.199,273,70.75,273,72.67c0,0.448-2.689,5.961-5.977,12.25
	c-3.287,6.29-5.987,12.573-6,13.963c-0.031,3.278,2.336,6.591,6.098,8.536c3.639,1.882,7.63,0.85,13.693-3.543l3.971-2.877
	l2.357,2.558c3.852,4.179,8.043,5.489,13.594,4.252c2.619-0.584,6.321-1.979,8.229-3.102l3.465-2.038l1.687,2.08
	c4.201,5.189,8.795,4.678,17.592-1.963c2.863-2.162,5.451-3.931,5.75-3.931S338,99.79,338,100.933c0,1.143,1.314,3.393,2.924,5
	c2.226,2.227,3.849,2.923,6.803,2.923c4.638,0,12.462-3.729,17.201-8.201c1.886-1.777,3.574-2.797,3.754-2.266
	c2.271,6.732,8.951,11.111,15.23,9.983c5.697-1.023,13.348-6.746,18.961-14.183c5.928-7.854,7.051-10.84,4.889-13.002
	c-1.33-1.33-2.182-0.661-7.614,5.987c-9.355,11.448-17.89,14.536-19.744,7.145C378.965,88.592,380.661,85.64,388.709,79.856z
	 M413.176,38.856c2.115,0-7.795,15.969-12.723,20.5c-0.598,0.551-3.193,3.007-5.771,5.459c-2.575,2.451-4.684,3.972-4.684,3.378
	C390,64.53,410.282,38.856,413.176,38.856z M374.317,47.203c4.346-4.591,8.278-8.348,8.741-8.348c2.314,0-8.135,15.217-15.278,22.25
	c-4.332,4.263-8.287,7.75-8.791,7.75C357.079,68.856,366.739,55.209,374.317,47.203z M149.652,73.379
	c-1.148,8.374-6.729,17.302-13.5,21.597c-5.039,3.194-8.277,3.64-10.143,1.393c-4.245-5.115,9.5-25.844,18.66-28.144
	C149.074,67.118,150.332,68.42,149.652,73.379z M187.885,51.757c-1.356,3.894-2.539,3.947-3.372,0.157
	c-0.559-2.543,0.712-7.059,1.987-7.059C188.027,44.856,188.854,48.979,187.885,51.757z M220.545,98.402
	c-1.35,1.35-2.945,2.454-3.545,2.454c-1.757,0-6-4.746-6-6.711c0-1.742,8.115-12.489,9.877-13.08
	c1.242-0.416,2.094,3.455,2.109,9.587C222.999,94.951,222.54,96.408,220.545,98.402z M308.709,93.373
	c-7.707,6.598-13.213,6.279-13.014-0.751c0.275-9.757,14.246-25.628,21.631-24.576C322.946,68.847,317.02,86.259,308.709,93.373z"/>
</svg>
