<?xml version="1.0" encoding="utf-8"?>
<!-- Generator: Adobe Illustrator 16.0.0, SVG Export Plug-In . SVG Version: 6.00 Build 0)  -->
<!DOCTYPE svg PUBLIC "-//W3C//DTD SVG 1.1//EN" "http://www.w3.org/Graphics/SVG/1.1/DTD/svg11.dtd">
<svg version="1.1" id="Layer_1" xmlns:svg="http://www.w3.org/2000/svg"
	 xmlns="http://www.w3.org/2000/svg" xmlns:xlink="http://www.w3.org/1999/xlink" x="0px" y="0px" width="196.001px"
	 height="69.854px" viewBox="80.499 56.5 196.001 69.854" enable-background="new 80.499 56.5 196.001 69.854" xml:space="preserve"
	>
<path fill="#FFFFFF" d="M205.445,76.575c-39.073,10.396-71.579,19.023-72.235,19.176c-9.528,2.194-17.33,1.979-22.659-0.632
	c-3.044-1.492-5.751-4.19-7.33-7.308c-2.289-4.522-2.513-10.354-0.656-17.152c1.156-4.235,3.278-9.13,5.76-13.282
	c0.287-0.481,0.515-0.877,0.504-0.877c-0.026,0-4.211,4.615-5.615,6.192c-9.539,10.726-15.007,18.468-18.55,26.274
	c-4.137,9.119-5.226,17.429-3.111,23.761c0.688,2.058,1.717,3.911,3.232,5.815c0.569,0.718,2.269,2.417,2.981,2.983
	c3.735,2.969,8.515,4.566,14.354,4.799c6.494,0.258,14.529-1.245,23.5-4.396c3.508-1.231,5.504-2.038,12.969-5.229
	C185.721,96.547,276.511,57.696,276.5,57.688C276.495,57.68,244.52,66.18,205.445,76.575z"/>
</svg>
