<?xml version="1.0" encoding="utf-8"?>
<!-- Generator: Adobe Illustrator 16.0.0, SVG Export Plug-In . SVG Version: 6.00 Build 0)  -->
<!DOCTYPE svg PUBLIC "-//W3C//DTD SVG 1.1//EN" "http://www.w3.org/Graphics/SVG/1.1/DTD/svg11.dtd">
<svg version="1.1" id="Layer_1" xmlns="http://www.w3.org/2000/svg" xmlns:xlink="http://www.w3.org/1999/xlink" x="0px" y="0px"
	 width="239.766px" height="122.683px" viewBox="5.155 5.13 239.766 122.683" enable-background="new 5.155 5.13 239.766 122.683"
	 xml:space="preserve">
<path fill="#FFFFFF" d="M127.223,19.178c0.146,0.722,2.723,3.017,3.443,4.167c0.712,1.15,5.61-0.243,7.467,1.15
	c0,0,4.043,2.125,0.856,5.311c-0.567,0.573-3.362-0.902-9.045,0.717c-1,0.289-4.321-0.051-4.734,3.307
	c-0.145,1.149-0.731,6.461,3.877,6.461c1.001,0,3.878,0.716,2.867-3.161c0,0,0.454-1.929,5.456,0.578
	c0.577,0.283,7.827,4.584,14.646,3.443c0.864-0.145,2.824-0.396,6.32-3.017c0,0,12.324,16.744,28.001,14.506
	c1.011-0.145,9.511-3.445,14.935,5.601c0.434,0.717,3.136,19.301,20.533,28c0.576,0.288-0.713,9.128,2.301,13.645
	c0.578,0.861,2.153,1.897,4.6,0.43c0.712-0.43-0.629-2.614,2.154-6.316l-2.731-11.489c0,0-8.519-4.027-7.32-11.199
	c0.144-0.86-0.043-15.785-5.312-22.118c-0.723-0.86,10.933-6.456,13.066-21.395c0.145-1.006,4.848-8.122,14.5-15.367
	c0,0,6.478-7.24-5.021-5.6c-1.012,0.144-9.787,7.725-12.635,21.972c-0.145,0.717-5.508,18.121-19.967,14.506
	c-0.576-0.145-10.168-0.676-18.666-7.756c-0.855-0.717-14.812-13.526-30.59-22.545c-1-0.577-6.602-5.027-12.777-5.027
	c-0.856,0,0.453-1.567-1.867-2.728c-1.145-0.572-0.434,1.005-2.155,1.722c-1.722,0.722-1.435-0.861-1.435-0.861l-1.288,2.301
	c0,0-4.373,1.608-4.744,3.443c-0.146,0.718,0.146,1.15-1,2.156C130.956,14.011,127.078,18.461,127.223,19.178"/>
<path fill="#FFFFFF" d="M49.1,124.725c0,1.664,1.351,3.018,3.011,3.018h32.167c1.67,0,3.021-1.354,3.021-3.018V70.443
	c0-1.664-1.351-3.016-3.021-3.016H71.5v49.256c0,1.666-1.351,3.019-3.012,3.019c-1.67,0-3.021-1.353-3.021-3.019V67.428H52.111
	c-1.66,0-3.011,1.352-3.011,3.016V124.725"/>
<path fill="#FFFFFF" d="M151.057,70.443c0-1.664-1.353-3.016-3.013-3.016H95.767c-1.661,0-3.013,1.352-3.013,3.016v54.279
	c0,1.666,1.352,3.019,3.013,3.019h9.767c1.671,0,3.022-1.353,3.022-3.019V78.484c0-1.66,1.34-3.012,3.011-3.012
	c1.661,0,3.012,1.352,3.012,3.012v46.238c0,1.666,1.352,3.019,3.021,3.019h9.188c1.661,0,3.012-1.353,3.012-3.019V78.448
	c0-1.666,1.353-3.014,3.021-3.014c1.66,0,3.012,1.348,3.012,3.014v46.348c0,1.665,1.424,3.017,3.084,3.017h9.199
	c1.66,0,3.012-1.352,3.012-3.017L151.057,70.443"/>
<path fill="#FFFFFF" d="M39.766,67.428H8.176c-1.67,0-3.021,1.352-3.021,3.016v57.298H22.1v-12.778c0-1.665,1.351-3.018,3.021-3.018
	h14.646c1.671,0,3.011-1.352,3.011-3.018V70.443C42.777,68.779,41.437,67.428,39.766,67.428z M28.133,102.323
	c0,1.664-1.351,3.017-3.012,3.017c-1.67,0-3.021-1.353-3.021-3.017V77.339c0-1.665,1.351-3.018,3.021-3.018
	c1.661,0,3.012,1.353,3.012,3.018V102.323z"/>
<path fill="#FFFFFF" d="M178.469,114.102l0.013,10.623c0,1.664,1.351,3.018,3.021,3.018h10.324c1.67,0,3.011-1.354,3.011-3.018
	V70.443c0-1.664-1.341-3.016-3.011-3.016h-32.167c-1.661,0-3.012,1.352-3.012,3.016v54.279c0,1.666,1.351,3.019,3.012,3.019h9.775
	c1.672,0,3.094-1.353,3.094-3.019l0.012-10.633c0-1.666,1.353-3.012,3.021-3.012c1.66,0,3.012,1.346,3.012,3.012L178.469,114.102
	 M178.572,102.391c0,1.666-1.352,3.019-3.012,3.019c-1.672,0-3.021-1.353-3.021-3.019l-0.104-23.906
	c0-1.659,1.352-3.012,3.021-3.012c1.66,0,3.011,1.353,3.011,3.012L178.572,102.391z"/>
</svg>
